# xmcd
#
# Track frame offsets: 
#        150
#        18325
#        36945
#        68200
#        87310
#        105297
#        125310
#        145895
#        164072
#        182732
#        201465
#        223297
#        239355
#        259067
#
# Disc length: 3698 seconds
#
# Revision: 0
# Processed by: cddbd v1.5.2PL0 Copyright (c) Steve Scherf et al.
# Submitted via: ExactAudioCopy v0.99pb4
#
DISCID=d00e700e
DTITLE=Двойная игра - Паралоновый мир
DYEAR=1998
DGENRE=Hip-House, Dance-House
TTITLE0=Паровоз
TTITLE1=Паралоновый мир
TTITLE2=Детство (Original version)
TTITLE3=L' Italiano 
TTITLE4=Пешеход-вездеход
TTITLE5=Moscow Jungle
TTITLE6=Ночь полной луны
TTITLE7=Матросы
TTITLE8=Дирижабль 
TTITLE9=Я тебя люблю
TTITLE10=Детство (Club Mix)
TTITLE11=Танцы
TTITLE12=Грустная песня
TTITLE13=Инструментал 
EXTD=
EXTT0=
EXTT1=
EXTT2=
EXTT3=
EXTT4=
EXTT5=
EXTT6=
EXTT7=
EXTT8=
EXTT9=
EXTT10=
EXTT11=
EXTT12=
EXTT13=
PLAYORDER=
